<svg xmlns="http://www.w3.org/2000/svg" viewBox="0 0 2048 2048">
<rect width="2048" height="2048" rx="448" ry="448" fill="#f5f4f1"/>
<g transform="translate(1024,1024) scale(1.1) translate(-1024,-1024)">
<g transform="translate(0,2048) scale(0.1,-0.1)" fill="#2E7D4F" stroke="none">
<path d="M9761 16464 c-514 -40 -964 -132 -1481 -303 -656 -218 -1219 -515
-1810 -957 -273 -205 -644 -547 -864 -798 -547 -623 -964 -1322 -1224 -2051
-110 -310 -142 -420 -142 -492 1 -119 55 -208 157 -255 57 -27 72 -30 128 -26
144 12 213 81 270 266 181 590 389 1044 689 1502 243 369 468 642 802 970 279
274 503 457 799 655 699 466 1415 748 2260 889 586 98 1235 98 1805 0 859
-147 1650 -471 2352 -962 474 -332 937 -781 1274 -1237 402 -544 664 -1049
874 -1685 111 -334 174 -638 240 -1150 12 -90 24 -168 26 -172 3 -5 1 -8 -3
-8 -5 0 -45 44 -89 97 -110 134 -139 162 -203 191 -74 34 -168 35 -235 3 -133
-65 -191 -233 -126 -365 11 -22 108 -144 216 -271 108 -126 249 -293 314 -370
212 -252 282 -306 399 -308 96 -2 148 19 216 87 33 34 93 106 133 161 40 55
173 237 296 405 288 392 290 394 295 487 3 63 0 81 -23 127 -32 66 -101 131
-152 145 -116 32 -229 0 -301 -87 -45 -54 -173 -231 -180 -249 -12 -32 -21 -6
-27 85 -31 444 -136 944 -306 1452 -88 266 -121 348 -250 625 -327 703 -713
1251 -1264 1800 -784 779 -1713 1317 -2772 1604 -400 109 -782 174 -1182 201
-208 14 -698 11 -911 -6z"/>
<path d="M10070 14875 c-187 -42 -325 -118 -460 -254 -110 -111 -176 -215
-222 -348 -28 -79 -31 -104 -35 -233 -3 -101 0 -167 10 -218 10 -53 11 -75 3
-78 -6 -2 -79 -19 -161 -38 -397 -90 -723 -209 -1105 -402 -817 -412 -1482
-1032 -1945 -1814 -213 -361 -376 -742 -496 -1165 -86 -305 -98 -450 -49 -620
46 -165 176 -364 305 -468 76 -61 236 -141 340 -169 109 -29 367 -32 465 -4
79 22 212 82 277 127 116 79 234 213 302 342 47 89 70 164 116 370 99 446 318
947 598 1367 351 526 740 910 1279 1264 376 246 700 416 1266 661 l122 54 113
-15 c534 -68 1006 -220 1454 -469 530 -294 948 -649 1329 -1130 154 -194 306
-439 442 -710 165 -331 286 -701 371 -1135 55 -283 68 -408 53 -513 -30 -211
-190 -389 -408 -454 -56 -17 -279 -18 -4414 -23 -4145 -5 -4358 -6 -4415 -23
-107 -32 -255 -111 -322 -171 -33 -31 -63 -56 -66 -56 -3 0 -7 12 -9 28 -3 15
-24 95 -47 177 -47 169 -88 358 -125 580 -26 156 -68 476 -63 481 2 2 17 -15
35 -38 17 -23 66 -79 109 -126 97 -106 163 -142 264 -142 192 0 310 184 238
374 -15 40 -49 89 -127 178 -453 519 -601 687 -627 711 -68 64 -174 92 -260
68 -89 -24 -126 -60 -284 -273 -464 -626 -539 -730 -556 -769 -22 -55 -23
-161 -2 -210 42 -101 146 -169 260 -169 120 0 177 42 306 225 39 55 72 105 75
110 8 22 15 -5 26 -100 41 -360 78 -576 146 -850 116 -467 257 -857 445 -1225
70 -138 281 -496 371 -630 373 -553 810 -1044 1278 -1436 1002 -839 2134
-1332 3350 -1458 580 -61 1224 -33 1765 75 1085 218 2073 714 2924 1469 268
238 649 638 810 850 32 41 100 131 152 200 233 305 495 749 669 1130 66 144
194 482 250 660 37 118 42 143 36 195 -21 205 -205 308 -393 219 -28 -13 -63
-41 -78 -60 -16 -20 -68 -116 -116 -213 -152 -303 -320 -495 -582 -665 -233
-152 -560 -256 -872 -276 -82 -6 -1939 -10 -4476 -10 -3805 0 -4341 2 -4385
15 -74 22 -143 80 -179 150 -27 52 -30 68 -30 149 0 76 4 99 24 140 31 63 84
116 147 147 l49 24 4345 5 c3950 5 4351 7 4415 22 238 55 447 169 597 326 176
184 265 387 291 659 12 137 -1 293 -49 573 -44 259 -147 653 -224 855 -328
869 -845 1571 -1574 2139 -541 421 -1274 757 -1934 886 -52 10 -96 20 -98 23
-3 3 3 42 12 88 26 131 16 327 -23 440 -100 290 -325 503 -623 589 -98 29
-305 36 -400 15z m271 -541 c67 -20 148 -73 185 -121 72 -94 92 -253 44 -347
l-25 -49 -95 4 c-52 2 -192 3 -311 1 l-217 -2 -16 41 c-42 103 -26 235 39 333
83 126 248 184 396 140z m-1091 -1187 c-8 -8 -58 -40 -110 -72 -357 -220 -705
-500 -1005 -806 -391 -401 -654 -771 -898 -1266 -155 -316 -263 -616 -377
-1057 -46 -178 -62 -215 -117 -268 -84 -81 -212 -113 -338 -84 -86 21 -141 52
-193 111 -54 61 -72 118 -72 226 0 228 209 806 435 1204 436 768 1095 1376
1902 1753 70 32 183 80 251 106 119 45 492 163 522 165 13 1 13 -1 0 -12z
m5790 -5872 c0 -3 -28 -47 -62 -98 -362 -539 -867 -1069 -1403 -1473 -527
-397 -1093 -691 -1715 -892 -378 -122 -857 -211 -1315 -243 -583 -41 -1377 63
-1958 255 -566 188 -1074 444 -1562 790 -296 209 -695 563 -956 846 -170 185
-213 237 -389 465 l-123 160 54 7 c30 3 1967 6 4305 7 4628 1 4406 -2 4690 56
120 24 325 82 387 109 36 16 47 18 47 11z"/>
</g>
</g>
</svg>
